<svg xmlns="http://www.w3.org/2000/svg" viewBox="0 0 942 780" width="942" height="780">
	<defs>
		<linearGradient id="grd1" gradientUnits="userSpaceOnUse"  x1="383.174" y1="775.676" x2="559.308" y2="12.756">
			<stop offset="0" stop-color="#ff8f5a"  />
			<stop offset="0.987" stop-color="#ff2f95"  />
		</linearGradient>
	</defs>
	<style>
		tspan { white-space:pre }
		.shp0 { fill: url(#grd1) } 
	</style>
	<g id="1_экран">
		<g id="bg+Человек+фигура">
			<path id="Ellipse 1" class="shp0" d="M406.52 52.41C513.26 1.95 613.99 1.8 698.21 39.67C782.65 77.24 850.57 152.84 896.7 246.79C940.97 341.67 940.93 443.58 904.77 526.03C868.11 609.7 807.1 672.78 723.97 717.8C679.94 740.47 633.65 756 574.82 765.53C516.76 774.93 446.14 778.33 371.32 773.48C222.85 764.16 56.45 720.4 21.36 621.69C1.47 572.68 13.95 516.49 38.68 459.95C63.81 403.33 101.18 346.35 140.42 293.83C180.06 241.24 221.57 193.12 264.31 152.31C307.45 111.41 351.82 77.83 406.52 52.41L406.52 52.41Z" />
		</g>
	</g>
</svg>